<?xml version="1.0" standalone="no"?>
<!DOCTYPE svg PUBLIC "-//W3C//DTD SVG 20010904//EN"
 "http://www.w3.org/TR/2001/REC-SVG-20010904/DTD/svg10.dtd">
<svg version="1.0" xmlns="http://www.w3.org/2000/svg"
 width="500.000000pt" height="500.000000pt" viewBox="0 0 500.000000 500.000000"
 preserveAspectRatio="xMidYMid meet">

<g transform="translate(0.000000,500.000000) scale(0.100000,-0.100000)"
fill="#000000" stroke="none">
<path d="M2315 3741 c-27 -10 -59 -22 -69 -27 -14 -5 -17 -4 -12 4 5 8 -2 12
-21 12 -26 0 -30 -6 -61 -96 l-34 -96 21 -14 c28 -20 27 -36 -2 -29 -18 5 -26
1 -35 -20 -7 -14 -12 -31 -12 -36 0 -6 -7 -17 -15 -25 -18 -18 -21 -110 -3
-116 7 -3 9 -14 4 -34 l-8 -29 -19 24 c-11 13 -21 22 -23 20 -1 -2 -54 -129
-117 -281 -83 -201 -115 -270 -117 -251 -2 15 1 29 7 31 6 2 11 10 11 17 0 8
-22 18 -56 26 -62 14 -292 2 -503 -26 -63 -8 -116 -13 -119 -11 -2 2 2 47 9
100 14 107 35 134 24 31 -5 -41 -4 -65 3 -65 9 0 72 160 72 186 0 11 16 14 64
14 80 0 279 33 366 61 107 34 153 81 93 95 -49 10 -80 22 -60 23 9 1 17 8 17
16 0 19 -17 19 -235 0 -93 -8 -171 -12 -174 -9 -5 4 16 174 22 180 1 2 75 11
162 20 88 9 165 21 170 26 7 7 -16 9 -67 5 -48 -3 -80 -2 -84 5 -4 6 -27 7
-59 3 -59 -7 -105 1 -105 20 0 9 50 14 198 19 115 5 207 12 221 19 25 12 53
53 65 93 5 18 0 26 -28 44 -34 21 -43 21 -354 19 l-320 -2 -12 -76 c-7 -42
-12 -102 -11 -135 2 -47 -1 -58 -12 -53 -12 4 -17 -14 -27 -91 -7 -53 -13
-119 -14 -147 -2 -27 -8 -60 -15 -72 -8 -16 -8 -23 -1 -23 6 0 8 -5 4 -11 -3
-6 -1 -15 6 -19 10 -6 10 -19 2 -56 l-10 -49 -2 40 c-2 37 -3 36 -15 -25 -7
-36 -16 -85 -20 -110 -6 -42 -5 -44 9 -25 15 19 15 19 17 -10 1 -27 2 -26 9
10 9 44 5 59 -12 49 -8 -5 -9 -1 -5 10 4 10 7 24 7 32 0 8 7 14 15 14 12 0 15
-14 15 -70 0 -69 -18 -150 -32 -150 -5 0 -8 16 -8 35 0 19 -5 35 -11 35 -5 0
-8 -4 -4 -9 3 -6 -4 -43 -15 -83 -28 -102 -27 -142 5 -156 40 -18 79 -15 410
34 350 52 391 65 259 82 l-59 8 63 7 c34 4 76 14 93 23 17 8 29 11 25 6 -3 -5
4 -18 15 -28 18 -16 20 -26 15 -70 -4 -37 -2 -55 8 -63 11 -9 15 -2 20 38 6
46 29 82 43 67 3 -3 1 -25 -6 -48 -11 -37 -11 -42 5 -51 27 -15 104 -20 104
-6 0 6 13 39 30 73 16 33 36 87 45 120 8 32 20 64 26 72 19 23 110 61 189 79
100 23 100 23 100 36 0 8 -14 10 -42 7 -24 -3 -54 -2 -68 1 -14 4 -47 1 -73
-7 -47 -14 -70 -10 -51 7 5 5 72 23 149 41 77 17 145 33 152 35 7 2 12 -14 15
-46 3 -43 1 -48 -14 -43 -14 4 -18 0 -18 -21 0 -18 4 -25 13 -22 9 3 12 -7 11
-37 -2 -24 0 -30 3 -13 2 15 11 27 19 27 11 0 15 -9 13 -27 -1 -16 3 -40 9
-54 6 -14 14 -47 17 -73 8 -48 7 -48 -15 -36 -22 12 -23 11 -17 -17 3 -17 9
-53 13 -82 7 -57 24 -79 24 -32 0 59 16 30 50 -90 19 -66 37 -122 42 -125 4
-3 13 7 21 22 9 17 17 23 21 15 14 -22 25 -10 19 21 -4 22 -3 29 5 24 7 -4 12
-14 12 -22 0 -8 7 -14 15 -14 8 0 15 4 15 9 0 9 -24 130 -35 180 -5 19 -3 22
11 17 16 -6 16 3 9 116 -4 68 -7 129 -6 136 5 68 1 193 -8 215 -6 16 -11 30
-11 31 0 2 18 6 41 10 53 8 99 32 99 51 0 11 -13 15 -51 15 -35 0 -58 6 -75
19 -20 16 -21 20 -8 25 9 3 27 6 40 6 13 0 24 5 24 10 0 6 -22 10 -49 10 -42
0 -50 3 -54 23 -3 12 -29 123 -57 247 -29 123 -53 227 -56 231 -2 3 -22 9 -45
12 -22 3 -48 12 -58 21 -23 21 -54 20 -116 -3z m59 -413 c32 -126 32 -139 3
-167 -22 -20 -142 -49 -154 -37 -6 6 108 306 117 306 4 0 19 -46 34 -102z
m-157 0 c-2 -7 -13 -39 -23 -71 -18 -57 -36 -70 -42 -29 -2 14 2 22 11 22 9 0
19 18 26 45 6 25 16 45 22 45 6 0 9 -6 6 -12z m-171 -155 c-11 -11 -19 6 -11
24 8 17 8 17 12 0 3 -10 2 -21 -1 -24z m94 -48 c0 -14 -4 -25 -10 -25 -11 0
-14 33 -3 43 11 11 13 8 13 -18z m-120 2 c0 -7 -7 -22 -15 -33 -12 -16 -14
-17 -15 -2 0 23 11 48 21 48 5 0 9 -6 9 -13z m376 -16 c-7 -11 -94 -31 -133
-31 -39 0 -19 13 40 26 66 15 100 16 93 5z m280 -476 c6 -32 1 -55 -10 -44
-11 11 -17 79 -8 79 6 0 14 -16 18 -35z m-126 -5 c0 -12 -28 -25 -36 -17 -9 9
6 27 22 27 8 0 14 -5 14 -10z"/>
<path d="M785 3710 c-3 -5 -19 -108 -35 -229 -51 -382 -79 -541 -112 -629 -19
-50 -22 -54 -49 -50 -27 4 -30 1 -50 -59 -11 -35 -25 -63 -29 -63 -29 0 -43
107 -27 192 7 31 5 37 -13 43 -11 3 -20 13 -20 21 0 16 -36 19 -45 4 -4 -6 -1
-18 6 -26 9 -11 9 -18 1 -26 -16 -16 -24 -5 -31 39 -5 32 -11 38 -34 41 -16 2
-39 -5 -56 -17 -16 -12 -36 -21 -44 -21 -21 0 -50 -81 -39 -111 5 -13 12 -59
16 -103 l7 -78 -30 4 c-26 4 -31 1 -31 -17 0 -15 12 -25 48 -39 42 -17 49 -24
62 -64 8 -25 27 -54 41 -65 29 -21 95 -28 153 -15 24 6 43 5 49 -1 13 -13 112
24 150 55 16 13 32 24 37 24 15 0 47 63 79 152 50 144 107 442 156 817 14 107
25 196 25 198 0 2 -13 3 -30 3 -23 0 -30 -4 -30 -20 0 -13 -7 -20 -20 -20 -16
0 -20 7 -20 35 0 34 -1 35 -39 35 -22 0 -43 -4 -46 -10z m-548 -852 c-2 -13
-4 -5 -4 17 -1 22 1 32 4 23 2 -10 2 -28 0 -40z"/>
<path d="M3092 3683 c-51 -5 -49 -1 -97 -178 -109 -401 -159 -842 -97 -863 9
-3 12 14 12 62 0 37 4 66 10 66 6 0 10 -18 10 -40 0 -21 5 -62 11 -90 8 -39
15 -50 30 -50 10 0 19 6 19 14 0 18 46 48 75 50 22 1 24 8 35 111 16 143 55
412 73 498 14 64 22 86 31 76 7 -9 206 -480 242 -574 27 -72 39 -120 42 -173
3 -57 8 -75 21 -78 9 -3 24 -10 33 -15 24 -12 28 -11 28 6 0 8 8 15 18 15 9 0
31 8 47 18 27 17 33 30 58 133 16 63 35 125 43 139 15 24 15 23 9 -25 -17
-155 -18 -188 -5 -183 9 3 21 54 37 154 39 253 82 472 125 634 45 173 53 230
32 230 -7 0 -16 -16 -20 -35 -6 -35 -17 -42 -43 -26 -19 12 -5 50 22 60 20 7
17 11 -28 33 -33 17 -57 23 -70 18 -12 -4 -29 -1 -41 7 -20 13 -22 11 -47 -84
-33 -123 -100 -434 -123 -576 -10 -59 -22 -106 -27 -104 -11 3 -106 226 -107
250 0 33 18 17 30 -28 7 -25 16 -45 20 -45 5 0 18 -29 30 -65 23 -70 44 -81
29 -15 -10 43 -29 80 -41 80 -5 0 -8 6 -8 13 0 6 -45 130 -102 275 -80 205
-105 262 -119 262 -10 0 -22 -7 -27 -16 -7 -13 -16 -10 -56 25 -26 23 -53 40
-59 39 -7 -1 -31 -3 -55 -5z m-112 -386 c0 -12 -4 -29 -10 -37 -6 -10 -9 -2
-8 28 0 23 4 39 9 36 5 -3 9 -15 9 -27z"/>
<path d="M4112 3618 c-7 -38 -12 -98 -12 -134 0 -52 -3 -65 -14 -61 -13 5 -29
-92 -42 -248 -2 -22 -6 -57 -8 -77 -3 -21 -1 -38 4 -38 12 0 12 -57 0 -85 -7
-17 -9 -14 -10 15 -2 26 -7 13 -21 -50 -17 -79 -24 -141 -12 -112 8 20 23 14
24 -10 1 -22 1 -22 9 2 14 44 12 73 -5 66 -12 -4 -14 0 -9 22 9 37 13 42 27
36 21 -8 -2 -224 -24 -224 -5 0 -9 16 -9 35 0 19 -5 35 -11 35 -5 0 -8 -4 -4
-9 3 -5 -4 -44 -15 -85 -12 -42 -20 -93 -18 -113 6 -72 32 -71 672 30 100 15
109 32 24 43 l-63 7 73 13 c86 14 116 35 110 76 -3 19 0 28 9 28 7 0 13 6 13
14 0 41 -168 43 -510 6 -91 -10 -166 -17 -168 -15 -2 2 2 46 8 99 14 109 37
136 26 31 -4 -36 -3 -65 1 -65 9 0 73 166 73 188 0 8 18 12 58 12 130 0 389
56 460 100 46 28 41 46 -18 60 -27 7 -47 16 -44 21 3 5 10 7 15 4 5 -4 9 1 9
9 0 20 -1 20 -229 1 -101 -9 -185 -15 -186 -13 -4 4 23 179 28 185 3 2 77 12
164 20 87 9 163 20 168 26 7 6 -16 8 -66 4 -42 -4 -79 -3 -84 1 -4 4 -41 7
-83 7 -63 0 -77 3 -80 16 -3 15 19 18 197 24 112 4 210 12 222 19 23 11 52 53
63 92 5 18 0 26 -28 44 -35 21 -42 21 -354 19 l-319 -3 -11 -68z"/>
<path d="M622 3010 c0 -19 2 -27 5 -17 2 9 2 25 0 35 -3 9 -5 1 -5 -18z"/>
<path d="M1302 3033 c-28 -3 -42 -8 -39 -16 2 -7 11 -12 20 -11 10 0 37 1 62
2 33 2 45 6 45 17 0 9 -8 14 -22 13 -13 -1 -42 -3 -66 -5z"/>
<path d="M1435 3030 l-40 -7 50 -1 c28 0 61 4 75 8 22 7 21 8 -10 8 -19 -1
-53 -4 -75 -8z"/>
<path d="M4292 3033 c-28 -3 -42 -8 -39 -16 2 -7 9 -12 15 -11 7 1 35 2 62 3
37 1 50 5 50 16 0 9 -8 14 -22 13 -13 -1 -42 -3 -66 -5z"/>
<path d="M4430 3030 l-35 -7 40 -1 c22 0 51 4 65 8 24 8 24 8 -5 8 -16 0 -46
-4 -65 -8z"/>
<path d="M592 2906 c-16 -88 -16 -95 8 -89 11 3 20 12 20 20 0 9 -5 11 -12 7
-9 -6 -9 -3 1 9 7 9 11 23 8 31 -4 9 3 16 16 20 20 5 20 6 4 24 -9 10 -17 24
-17 30 0 7 -4 12 -8 12 -5 0 -14 -29 -20 -64z"/>
<path d="M2450 2767 c0 -31 13 -77 22 -77 14 0 5 83 -9 88 -7 2 -13 -3 -13
-11z"/>
<path d="M360 1892 c0 -4 22 -73 48 -152 45 -134 51 -145 75 -148 25 -3 27 1
63 115 l37 118 36 -115 c34 -106 39 -115 63 -118 25 -3 27 1 73 140 27 79 50
149 53 156 2 8 -5 12 -22 12 -15 0 -28 -6 -31 -12 -2 -7 -19 -62 -38 -123
l-33 -110 -22 65 c-11 36 -28 91 -37 123 -12 42 -21 57 -34 57 -27 0 -36 -16
-66 -120 -15 -52 -30 -101 -35 -109 -8 -15 -9 -14 -55 142 -24 78 -29 87 -51
87 -13 0 -24 -3 -24 -8z"/>
<path d="M887 1893 c-4 -3 -7 -73 -7 -155 l0 -148 116 0 c114 0 115 0 112 23
-3 21 -8 22 -90 25 l-88 3 0 39 0 40 75 0 c73 0 75 1 75 25 0 24 -2 25 -76 25
l-75 0 3 38 3 37 83 3 c80 3 82 3 82 27 0 25 0 25 -103 25 -57 0 -107 -3 -110
-7z"/>
<path d="M1208 1894 c-10 -9 -10 -159 -2 -243 l7 -61 84 0 c87 0 135 15 147
45 13 34 6 72 -18 94 -24 23 -24 23 -5 42 28 28 22 76 -12 102 -20 14 -49 20
-110 24 -46 3 -87 2 -91 -3z m166 -60 c34 -34 4 -64 -65 -64 l-49 0 0 40 0 40
49 0 c32 0 55 -6 65 -16z m20 -136 c21 -34 -4 -53 -73 -56 l-61 -3 0 41 0 41
61 -3 c46 -2 65 -8 73 -20z"/>
<path d="M1700 1745 l0 -155 83 0 c96 0 140 17 175 70 20 29 23 44 20 93 -4
51 -9 63 -40 94 -39 39 -84 52 -180 53 l-58 0 0 -155z m203 65 c26 -29 29 -38
24 -79 -7 -66 -40 -91 -118 -91 l-59 0 0 106 0 106 61 -4 c55 -4 65 -8 92 -38z"/>
<path d="M2105 1893 c-11 -3 -23 -10 -27 -17 -4 -6 -8 -73 -8 -148 l0 -138
115 0 115 0 0 25 c0 25 -1 25 -85 25 l-85 0 0 40 0 40 76 0 c72 0 75 1 72 23
-3 20 -9 22 -75 25 l-73 3 0 39 0 40 80 0 c79 0 80 0 80 25 0 25 -1 25 -82 24
-46 -1 -92 -4 -103 -6z"/>
<path d="M2364 1883 c3 -10 30 -79 60 -153 50 -126 56 -135 82 -138 28 -3 30
0 87 145 32 81 57 152 57 156 0 5 -10 7 -22 5 -19 -2 -31 -23 -68 -115 -25
-62 -48 -115 -51 -118 -3 -2 -26 48 -50 113 -41 108 -47 117 -73 120 -23 3
-27 0 -22 -15z"/>
<path d="M2737 1893 c-4 -3 -7 -73 -7 -155 l0 -148 115 0 115 0 0 25 c0 25 -1
25 -85 25 l-85 0 0 40 0 40 76 0 c72 0 75 1 72 23 -3 20 -9 22 -75 25 l-73 3
0 39 0 40 80 0 c79 0 80 0 80 25 l0 25 -103 0 c-57 0 -107 -3 -110 -7z"/>
<path d="M3405 1885 c-103 -37 -135 -164 -62 -243 72 -78 195 -69 260 19 26
36 27 114 1 157 -38 66 -124 95 -199 67z m131 -69 c27 -27 34 -42 34 -74 0
-72 -64 -120 -135 -101 -90 25 -103 152 -20 197 40 22 85 14 121 -22z"/>
<path d="M3720 1745 l0 -155 25 0 c23 0 25 4 25 45 l0 45 45 0 c90 0 145 42
145 112 0 74 -57 106 -187 108 l-53 0 0 -155z m168 89 c26 -18 29 -60 5 -86
-12 -13 -30 -18 -70 -18 l-53 0 0 60 0 60 48 0 c27 0 57 -7 70 -16z"/>
<path d="M4050 1745 l0 -155 110 0 110 0 0 25 c0 25 -1 25 -85 25 l-85 0 0 40
0 40 75 0 c73 0 75 1 75 25 0 24 -2 25 -75 25 l-75 0 0 40 0 40 86 0 c83 0 85
1 82 23 -3 21 -8 22 -110 25 l-108 3 0 -156z"/>
<path d="M3060 1740 l0 -150 90 0 c89 0 90 0 90 25 0 24 -2 25 -65 25 l-65 0
0 125 0 125 -25 0 -25 0 0 -150z"/>
<path d="M4370 1740 l0 -150 25 0 c23 0 25 4 25 45 l0 45 45 0 c43 0 47 -2 73
-45 22 -36 32 -45 55 -45 l28 0 -31 44 c-35 52 -36 57 -11 73 28 17 42 74 30
118 -14 50 -49 65 -154 65 l-85 0 0 -150z m180 90 c24 -24 25 -48 4 -78 -13
-19 -24 -22 -75 -22 l-59 0 0 60 0 60 55 0 c42 0 60 -5 75 -20z"/>
</g>
</svg>
